<svg width="64" height="64" viewBox="0 0 64 64" fill="none" xmlns="http://www.w3.org/2000/svg">
<rect width="64" height="64" rx="8" fill="#F3F3F3"/>
<rect x="39" y="23" width="12" height="20" fill="white"/>
<path d="M14 24H43V51H14V24Z" fill="white"/>
<path d="M15.6101 52.5H44.4292V52.4088C44.5377 52.3586 44.6395 52.29 44.7262 52.1975L51.3331 45.1897C51.5103 45.0016 52 44.5 52 44.5L51.9997 44.5208L52 19.2272C52 17.2215 50.3808 15.5897 48.3905 15.5897H47.4219L47.4216 13.541C47.4216 12.4187 46.5103 11.5 45.3963 11.5H45.192C44.0783 11.5 43.1667 12.4183 43.1667 13.541V15.5897L38.5589 15.5894V13.541C38.5589 12.4187 37.6477 11.5 36.5336 11.5H36.3293C35.2156 11.5 34.304 12.4183 34.304 13.541V15.5897L29.6963 15.5894V13.541C29.6963 12.4187 28.785 11.5 27.671 11.5H27.4667C26.353 11.5 25.4414 12.4184 25.4414 13.541V15.5897L20.833 15.5894V13.5411C20.833 12.4187 19.9218 11.5 18.8077 11.5H18.6034C17.4897 11.5 16.5781 12.4184 16.5781 13.5411V15.5897H15.6094C13.6192 15.5897 12 17.2215 12 19.2272V48.8624C12.0006 50.8681 13.6195 52.5 15.6101 52.5ZM13.9279 48.8625V25.2626H50.0716V41.8153H45.5689C43.5786 41.8153 41.9595 43.4471 41.9595 45.4528V50.5568L15.6104 50.5571C14.6831 50.5574 13.9279 49.7971 13.9279 48.8625ZM49.9352 43.8519L43.8868 50.267V45.4531C43.8868 44.5183 44.6413 43.7581 45.5683 43.7581H50.0427C50.0061 43.7871 49.9686 43.8164 49.9352 43.8519Z" fill="#065F46"/>
</svg>
