<svg width="64" height="64" viewBox="0 0 64 64" fill="none" xmlns="http://www.w3.org/2000/svg">
<rect width="64" height="64" rx="8" fill="#064E3B"/>
<path d="M18 24H47V30H18V24Z" fill="#B6FF2D"/>
<path fill-rule="evenodd" clip-rule="evenodd" d="M22.75 13.5C22.1367 13.5 21.5485 13.7436 21.1148 14.1773C20.6811 14.611 20.4375 15.1992 20.4375 15.8125V18.125H18.125C16.8984 18.125 15.722 18.6123 14.8546 19.4796C13.9873 20.347 13.5 21.5234 13.5 22.75V45.875C13.5 47.1016 13.9873 48.278 14.8546 49.1454C15.722 50.0127 16.8984 50.5 18.125 50.5H45.875C47.1016 50.5 48.278 50.0127 49.1454 49.1454C50.0127 48.278 50.5 47.1016 50.5 45.875V22.75C50.5 21.5234 50.0127 20.347 49.1454 19.4796C48.278 18.6123 47.1016 18.125 45.875 18.125H43.5625V15.8125C43.5625 15.1992 43.3189 14.611 42.8852 14.1773C42.4515 13.7436 41.8633 13.5 41.25 13.5C40.6367 13.5 40.0485 13.7436 39.6148 14.1773C39.1811 14.611 38.9375 15.1992 38.9375 15.8125V18.125H25.0625V15.8125C25.0625 15.1992 24.8189 14.611 24.3852 14.1773C23.9515 13.7436 23.3633 13.5 22.75 13.5ZM22.75 25.0625C22.1367 25.0625 21.5485 25.3061 21.1148 25.7398C20.6811 26.1735 20.4375 26.7617 20.4375 27.375C20.4375 27.9883 20.6811 28.5765 21.1148 29.0102C21.5485 29.4439 22.1367 29.6875 22.75 29.6875H41.25C41.8633 29.6875 42.4515 29.4439 42.8852 29.0102C43.3189 28.5765 43.5625 27.9883 43.5625 27.375C43.5625 26.7617 43.3189 26.1735 42.8852 25.7398C42.4515 25.3061 41.8633 25.0625 41.25 25.0625H22.75Z" fill="white"/>
</svg>
