<svg width="15" height="16" viewBox="0 0 15 16" fill="none" xmlns="http://www.w3.org/2000/svg">
<path d="M7.04545 0C5.45416 0 3.92803 0.632141 2.80281 1.75736C1.6776 2.88258 1.04545 4.4087 1.04545 6V9.586L0.338455 10.293C0.198645 10.4329 0.103439 10.611 0.0648711 10.805C0.0263036 10.9989 0.0461066 11.2 0.121777 11.3827C0.197447 11.5654 0.325586 11.7215 0.489996 11.8314C0.654406 11.9413 0.847704 12 1.04545 12H13.0455C13.2432 12 13.4365 11.9413 13.6009 11.8314C13.7653 11.7215 13.8935 11.5654 13.9691 11.3827C14.0448 11.2 14.0646 10.9989 14.026 10.805C13.9875 10.611 13.8923 10.4329 13.7525 10.293L13.0455 9.586V6C13.0455 4.4087 12.4133 2.88258 11.2881 1.75736C10.1629 0.632141 8.63675 0 7.04545 0V0ZM7.04545 16C6.24981 16 5.48674 15.6839 4.92413 15.1213C4.36153 14.5587 4.04545 13.7956 4.04545 13H10.0455C10.0455 13.7956 9.72938 14.5587 9.16678 15.1213C8.60417 15.6839 7.8411 16 7.04545 16Z" fill="white"/>
</svg>
