<svg width="37" height="36" viewBox="0 0 37 36" fill="none" xmlns="http://www.w3.org/2000/svg">
<rect x="0.5" width="36" height="36" rx="18" fill="#2D2D2D"/>
<path fill-rule="evenodd" clip-rule="evenodd" d="M18.5 10C18.8031 10 19.0938 10.1204 19.3081 10.3347C19.5224 10.5491 19.6429 10.8398 19.6429 11.1429V16.8571H25.3571C25.6602 16.8571 25.9509 16.9776 26.1653 17.1919C26.3796 17.4062 26.5 17.6969 26.5 18C26.5 18.3031 26.3796 18.5938 26.1653 18.8081C25.9509 19.0224 25.6602 19.1429 25.3571 19.1429H19.6429V24.8571C19.6429 25.1602 19.5224 25.4509 19.3081 25.6653C19.0938 25.8796 18.8031 26 18.5 26C18.1969 26 17.9062 25.8796 17.6919 25.6653C17.4776 25.4509 17.3571 25.1602 17.3571 24.8571V19.1429H11.6429C11.3398 19.1429 11.0491 19.0224 10.8347 18.8081C10.6204 18.5938 10.5 18.3031 10.5 18C10.5 17.6969 10.6204 17.4062 10.8347 17.1919C11.0491 16.9776 11.3398 16.8571 11.6429 16.8571H17.3571V11.1429C17.3571 10.8398 17.4776 10.5491 17.6919 10.3347C17.9062 10.1204 18.1969 10 18.5 10V10Z" fill="white"/>
</svg>
